<svg id="Layer_1" data-name="Layer 1" xmlns="http://www.w3.org/2000/svg" viewBox="0 0 246.45 134"><defs><style>.cls-1{fill:#faaa42;}.cls-2{fill:#009ce0;}</style></defs><title>zampy_logo_no-whitespace</title><path class="cls-1" d="M0,83.85V75.78L19.37,57H0V49.43H33.77V57L13.54,75.78H33.77v8.06Z" transform="translate(0 -0.02)"/><path class="cls-1" d="M71.08,83.71H62.44V79.33a12.75,12.75,0,0,1-10.08,4.25,16.87,16.87,0,0,1-6.46-1.44,14.7,14.7,0,0,1-5-3.63,13.6,13.6,0,0,1-3.22-5,24.9,24.9,0,0,1-1.31-5.08,16,16,0,0,1,.92-7.58,16,16,0,0,1,8.91-9.9,18.22,18.22,0,0,1,7.49-1.48,21.71,21.71,0,0,1,7.16,1.12,14.47,14.47,0,0,1,5.47,3.35,14.8,14.8,0,0,1,3.49,5.62,23.29,23.29,0,0,1,1.22,7.92ZM47.7,59.56c-1.44,1.73-2.25,3.67-2.25,7.13a9.56,9.56,0,0,0,2.38,6.94c1.44,1.73,3.53,2.25,6,2.25A8,8,0,0,0,60,73.25c1.44-1.73,2.06-3.11,2.06-6.56s-.62-5.4-2.06-7.12a7.87,7.87,0,0,0-6.21-2.43A7.62,7.62,0,0,0,47.7,59.56Z" transform="translate(0 -0.02)"/><path class="cls-1" d="M118.2,83.85V62.18c0-2.21-.46-2.78-1.37-3.72s-2.45-1.4-4.61-1.4a6.66,6.66,0,0,0-4.46,1.26,5.74,5.74,0,0,0-1.58,4.21V83.85H97V62.18c0-2.21-.47-2.78-1.4-3.72s-2.48-1.4-4.64-1.4-3.7.47-4.61,1.4S84.93,60,84.93,62.18V83.85H75.36V62.17q0-6.48,4.18-9.54T91,49.57a18.29,18.29,0,0,1,6.26,1,14.83,14.83,0,0,1,4.54,2.56,16.22,16.22,0,0,1,10.51-3.53q7.2,0,11.41,3.06t4.21,9.54V83.85Z" transform="translate(0 -0.02)"/><path class="cls-2" d="M179.13,57.27a7.2,7.2,0,0,0-5.83,2.59c-1.44,1.73-2.16,3.32-2.16,6.78s.72,5,2.16,6.78a7.86,7.86,0,0,0,11.66,0c1.44-1.73,2.16-3.32,2.16-6.78s-.72-5-2.16-6.78A7.2,7.2,0,0,0,179.13,57.27Z" transform="translate(0 -0.02)"/><path class="cls-2" d="M137.21,0V134H246.45V0Zm17.71,81.93a5,5,0,0,1-4,1.76,5,5,0,0,1-4-1.76,6.36,6.36,0,0,1-1.51-4.28,6.09,6.09,0,0,1,1.51-4.21,5.14,5.14,0,0,1,4-1.69,5.06,5.06,0,0,1,4,1.69,6.09,6.09,0,0,1,1.51,4.21A6.36,6.36,0,0,1,154.92,81.95Zm40.81-8.14a15.14,15.14,0,0,1-3.35,5.33,14.78,14.78,0,0,1-5.15,3.38,17.89,17.89,0,0,1-6.66,1.19,15.94,15.94,0,0,1-4.93-.76,9.81,9.81,0,0,1-4-2.41V98.62h-9.79v-31a20.91,20.91,0,0,1,1.3-7.6,15.59,15.59,0,0,1,3.67-5.65,16,16,0,0,1,5.72-3.53,21.36,21.36,0,0,1,7.38-1.22A16.53,16.53,0,0,1,187,51a15.77,15.77,0,0,1,5.36,4,18.11,18.11,0,0,1,3.38,6.08,23.78,23.78,0,0,1,1.19,7.63C196.92,71.38,196.52,71.72,195.73,73.81ZM218.31,88.1a21.57,21.57,0,0,1-2.23,4.46,12.51,12.51,0,0,1-3.17,3.28,14.25,14.25,0,0,1-4.43,2.05,22.33,22.33,0,0,1-6,.72H201a8.85,8.85,0,0,1-1.58-.14V90.7l1.19.11c.36,0,.73,0,1.12,0a14.46,14.46,0,0,0,3.46-.36,5.51,5.51,0,0,0,2.45-1.3,8.74,8.74,0,0,0,1.8-2.52,34.35,34.35,0,0,0,1.66-4.1L196.57,49.43h10.73l8.35,21.18,7.56-21.18h10.51Z" transform="translate(0 -0.02)"/></svg>