<?xml version="1.0" encoding="utf-8"?>
<!-- Generator: Adobe Illustrator 18.1.1, SVG Export Plug-In . SVG Version: 6.00 Build 0)  -->
<svg version="1.1" xmlns="http://www.w3.org/2000/svg" xmlns:xlink="http://www.w3.org/1999/xlink" x="0px" y="0px"
	 viewBox="0 0 195.3 87.7" enable-background="new 0 0 195.3 87.7" xml:space="preserve">
<g id="Guides">
</g>
<g id="Layer_1">
	<g>
		<path fill="#F28200" d="M27.9,61H0.6v-2.2l22.7-32.9h-21v-3.1h25.6V25L5,57.9h22.9V61z"/>
		<path fill="#F28200" d="M54.8,61l-0.9-6h-0.3c-1.9,2.5-3.9,4.2-5.9,5.2c-2,1-4.4,1.5-7.2,1.5c-3.8,0-6.7-1-8.8-2.9
			c-2.1-1.9-3.1-4.6-3.1-8c0-3.7,1.6-6.6,4.7-8.7c3.1-2.1,7.6-3.2,13.5-3.3l7.3-0.2v-2.5c0-3.6-0.7-6.4-2.2-8.2
			c-1.5-1.9-3.9-2.8-7.1-2.8c-3.5,0-7.2,1-11,3l-1.3-3c4.2-2,8.3-3,12.4-3c4.2,0,7.3,1.1,9.4,3.3s3.1,5.6,3.1,10.2V61H54.8z
			 M40.7,58.5c4.1,0,7.3-1.2,9.7-3.5s3.5-5.6,3.5-9.7v-3.8l-6.7,0.3c-5.4,0.3-9.2,1.1-11.5,2.5S32.3,48,32.3,51
			c0,2.4,0.7,4.2,2.2,5.6C36,57.8,38,58.5,40.7,58.5z"/>
		<path fill="#F28200" d="M110.7,61V35.9c0-3.7-0.7-6.4-2.2-8.2c-1.5-1.7-3.7-2.6-6.7-2.6c-3.9,0-6.8,1.1-8.7,3.2
			c-1.9,2.2-2.8,5.5-2.8,10.2V61h-3.6V34.8c0-6.4-3-9.7-8.9-9.7c-4,0-6.9,1.2-8.8,3.5c-1.8,2.3-2.7,6.1-2.7,11.2V61h-3.5V22.8h2.9
			l0.7,5.2h0.2c1.1-1.9,2.6-3.4,4.5-4.4c1.9-1,4.1-1.6,6.4-1.6c6,0,9.9,2.3,11.6,6.8h0.1c1.2-2.2,2.9-3.9,5-5
			c2.1-1.2,4.5-1.8,7.2-1.8c4.2,0,7.3,1.1,9.4,3.3c2.1,2.2,3.1,5.8,3.1,10.6v25H110.7z"/>
		<path fill="#006699" d="M119,58.2c0-2.3,0.9-3.4,2.8-3.4c1.9,0,2.9,1.1,2.9,3.4s-1,3.4-2.9,3.4C120,61.7,119,60.5,119,58.2z"/>
		<path fill="#006699" d="M146.4,61.7c-5.9,0-10.2-2.2-12.9-6.6h-0.2l0.1,3c0.1,1.7,0.1,3.6,0.1,5.7v14.6h-3.5V22.8h3l0.7,5.4h0.2
			c2.6-4.1,6.8-6.2,12.6-6.2c5.2,0,9.1,1.7,11.8,5.1c2.7,3.4,4.1,8.3,4.1,14.8c0,6.3-1.4,11.2-4.3,14.6S151.3,61.7,146.4,61.7z
			 M146.4,58.6c3.9,0,6.9-1.5,9.1-4.4s3.2-7,3.2-12.2c0-11.2-4.1-16.8-12.2-16.8c-4.5,0-7.7,1.2-9.8,3.7c-2.1,2.4-3.1,6.4-3.1,12V42
			c0,6,1,10.2,3,12.8S141.8,58.6,146.4,58.6z"/>
		<path fill="#006699" d="M161.8,22.8h3.6l8.1,21.4c2.5,6.6,4,11,4.7,13.3h0.2c1-3,2.6-7.5,4.8-13.5l8.1-21.2h3.6l-17.1,44.4
			c-1.4,3.6-2.5,6-3.5,7.3s-2,2.2-3.3,2.8s-2.8,0.9-4.6,0.9c-1.3,0-2.8-0.2-4.5-0.7v-3c1.4,0.4,2.8,0.6,4.4,0.6
			c1.2,0,2.3-0.3,3.2-0.8s1.7-1.4,2.5-2.6c0.7-1.2,1.6-3.1,2.6-5.6c1-2.6,1.6-4.2,1.9-5L161.8,22.8z"/>
	</g>
	<g>
		<g>
			<g>
				<path fill="#FF9820" d="M33.9,12.1c-0.1,0-0.1,0.1-0.2,0c-0.8,0-2.3-0.3-1.8-2.3c0,0,0.1-0.2,0.1-0.2c0.7-0.5,1.5-1.1,2.2-1.5
					c0.8-0.5,1.5-0.9,2.3-1.3c6.6-3.4,13.9-5,21.1-5.8c7.2-0.7,14.5-0.6,21.7-0.1c7.2,0.6,14.4,1.6,21.4,3.3c3.5,0.9,7,1.9,10.4,3.1
					l1.8,0.7c0.5,0.2,1,0.4,1.4,0.6c0,0,0.3,0.1,0.7,0.4c0.4,0.2,1.1,0.5,1.8,0.9c0.7,0.4,1.5,0.9,2.3,1.3c0.8,0.5,1.6,1,2.2,1.5
					c4.6,3.4,2.3,2.8-0.9,1.5c0.1,0.1-1.7-0.7-3.7-1.5c-1-0.4-2-0.8-2.7-1c-0.8-0.3-1.3-0.4-1.3-0.4c-0.4-0.2-0.9-0.4-1.4-0.5
					l-0.7-0.3l-0.7-0.3c-0.4-0.2-0.8-0.3-1.2-0.4c-3.3-1.1-6.6-2.1-10-2.8c-6.8-1.6-13.7-2.5-20.6-3c-6.9-0.5-13.9-0.6-20.8,0.2
					c-6.8,0.8-13.7,2.3-19.7,5.4c-0.7,0.4-1.4,0.8-2.2,1.2C35.2,11.2,34.6,11.6,33.9,12.1z"/>
			</g>
		</g>
	</g>
	<g>
		<g>
			<g>
				<path fill="#20698C" d="M149.5,75.9c0.1,0,0.1-0.1,0.2,0c0.8,0,2.3,0.3,1.8,2.3c0,0-0.1,0.2-0.1,0.2c-0.7,0.5-1.5,1.1-2.2,1.5
					c-0.8,0.5-1.5,0.9-2.3,1.3c-6.6,3.4-13.9,5-21.1,5.8c-7.2,0.7-14.5,0.6-21.7,0.1c-7.2-0.6-14.4-1.6-21.4-3.3
					c-3.5-0.9-7-1.9-10.4-3.1l-1.8-0.7c-0.5-0.2-1-0.4-1.4-0.6c0,0-0.3-0.1-0.7-0.4c-0.4-0.2-1.1-0.5-1.8-0.9
					c-0.7-0.4-1.5-0.9-2.3-1.3c-0.8-0.5-1.6-1-2.2-1.5c-4.6-3.4-2.3-2.8,0.9-1.5c-0.1-0.1,1.7,0.7,3.7,1.5c1,0.4,2,0.8,2.7,1
					c0.8,0.3,1.3,0.4,1.3,0.4c0.4,0.2,0.9,0.4,1.4,0.5l0.7,0.3l0.7,0.3c0.4,0.2,0.8,0.3,1.2,0.4c3.3,1.1,6.6,2.1,10,2.8
					c6.8,1.6,13.7,2.5,20.6,3c6.9,0.5,13.9,0.6,20.8-0.2c6.8-0.8,13.7-2.3,19.7-5.4c0.7-0.4,1.4-0.8,2.2-1.2
					C148.2,76.9,148.9,76.4,149.5,75.9z"/>
			</g>
		</g>
	</g>
</g>
</svg>
